<mxfile host="app.diagrams.net" agent="Mozilla/5.0 (Windows NT 10.0; Win64; x64) AppleWebKit/537.36 (KHTML, like Gecko) Chrome/138.0.0.0 Safari/537.36" version="27.1.6">
  <diagram name="Página-1" id="IpmAKofrDw2QBqaIdOL2">
    <mxGraphModel grid="1" page="1" gridSize="10" guides="1" tooltips="1" connect="1" arrows="1" fold="1" pageScale="1" pageWidth="827" pageHeight="1169" math="0" shadow="0">
      <root>
        <mxCell id="0" />
        <mxCell id="1" parent="0" />
        <mxCell id="emeNvtZWzEPwYmurZ9CY-1" value="CU043  Agregar Imagen" style="swimlane;childLayout=stackLayout;resizeParent=1;resizeParentMax=0;startSize=20;horizontal=0;horizontalStack=1;" vertex="1" parent="1">
          <mxGeometry x="-250" y="-1000" width="854" height="640" as="geometry">
            <mxRectangle x="200" y="80" width="40" height="50" as="alternateBounds" />
          </mxGeometry>
        </mxCell>
        <mxCell id="emeNvtZWzEPwYmurZ9CY-83" style="edgeStyle=orthogonalEdgeStyle;rounded=0;orthogonalLoop=1;jettySize=auto;html=1;exitX=1;exitY=0.5;exitDx=0;exitDy=0;strokeColor=light-dark(#ff0000, #ededed);entryX=0.583;entryY=0;entryDx=0;entryDy=0;entryPerimeter=0;" edge="1" parent="emeNvtZWzEPwYmurZ9CY-1" source="MkEyBu7R_c_1ipwITK1c-3" target="emeNvtZWzEPwYmurZ9CY-35">
          <mxGeometry relative="1" as="geometry">
            <mxPoint x="392" y="220" as="sourcePoint" />
          </mxGeometry>
        </mxCell>
        <mxCell id="emeNvtZWzEPwYmurZ9CY-85" value="si" style="edgeLabel;html=1;align=center;verticalAlign=middle;resizable=0;points=[];" vertex="1" connectable="0" parent="emeNvtZWzEPwYmurZ9CY-83">
          <mxGeometry x="-0.7201" y="-1" relative="1" as="geometry">
            <mxPoint as="offset" />
          </mxGeometry>
        </mxCell>
        <mxCell id="MkEyBu7R_c_1ipwITK1c-5" value="no&amp;nbsp;" style="edgeStyle=orthogonalEdgeStyle;rounded=0;orthogonalLoop=1;jettySize=auto;html=1;entryX=0;entryY=0.5;entryDx=0;entryDy=0;fillColor=#FF0000;strokeColor=light-dark(#ff0000, #ededed);exitX=0;exitY=0.5;exitDx=0;exitDy=0;" edge="1" parent="emeNvtZWzEPwYmurZ9CY-1" source="MkEyBu7R_c_1ipwITK1c-3" target="emeNvtZWzEPwYmurZ9CY-17">
          <mxGeometry relative="1" as="geometry">
            <mxPoint x="790" y="890" as="targetPoint" />
            <Array as="points">
              <mxPoint x="56" y="123" />
              <mxPoint x="56" y="605" />
            </Array>
          </mxGeometry>
        </mxCell>
        <mxCell id="MkEyBu7R_c_1ipwITK1c-48" style="edgeStyle=orthogonalEdgeStyle;rounded=0;orthogonalLoop=1;jettySize=auto;html=1;entryX=0.6;entryY=0.076;entryDx=0;entryDy=0;entryPerimeter=0;strokeColor=#FF0000;" edge="1" parent="emeNvtZWzEPwYmurZ9CY-1" source="emeNvtZWzEPwYmurZ9CY-35" target="MkEyBu7R_c_1ipwITK1c-40">
          <mxGeometry relative="1" as="geometry">
            <mxPoint x="574.4000000000001" y="328.75" as="targetPoint" />
          </mxGeometry>
        </mxCell>
        <mxCell id="MkEyBu7R_c_1ipwITK1c-86" style="edgeStyle=orthogonalEdgeStyle;rounded=0;orthogonalLoop=1;jettySize=auto;html=1;entryX=0;entryY=0.5;entryDx=0;entryDy=0;strokeColor=light-dark(#ff0000, #ededed);" edge="1" parent="emeNvtZWzEPwYmurZ9CY-1" source="MkEyBu7R_c_1ipwITK1c-84" target="MkEyBu7R_c_1ipwITK1c-87">
          <mxGeometry relative="1" as="geometry">
            <mxPoint x="510" y="375" as="targetPoint" />
          </mxGeometry>
        </mxCell>
        <mxCell id="MkEyBu7R_c_1ipwITK1c-89" style="edgeStyle=orthogonalEdgeStyle;rounded=0;orthogonalLoop=1;jettySize=auto;html=1;entryX=0.408;entryY=-0.017;entryDx=0;entryDy=0;entryPerimeter=0;strokeColor=#FF0000;" edge="1" parent="emeNvtZWzEPwYmurZ9CY-1" source="MkEyBu7R_c_1ipwITK1c-87" target="MkEyBu7R_c_1ipwITK1c-88">
          <mxGeometry relative="1" as="geometry">
            <Array as="points">
              <mxPoint x="582" y="430" />
              <mxPoint x="169" y="430" />
            </Array>
          </mxGeometry>
        </mxCell>
        <mxCell id="emeNvtZWzEPwYmurZ9CY-4" value="Administrador" style="swimlane;startSize=20;" vertex="1" parent="emeNvtZWzEPwYmurZ9CY-1">
          <mxGeometry x="20" width="290" height="640" as="geometry" />
        </mxCell>
        <mxCell id="MkEyBu7R_c_1ipwITK1c-4" style="edgeStyle=orthogonalEdgeStyle;rounded=0;orthogonalLoop=1;jettySize=auto;html=1;entryX=0.5;entryY=0;entryDx=0;entryDy=0;" edge="1" parent="emeNvtZWzEPwYmurZ9CY-4" source="emeNvtZWzEPwYmurZ9CY-5" target="MkEyBu7R_c_1ipwITK1c-3">
          <mxGeometry relative="1" as="geometry" />
        </mxCell>
        <mxCell id="emeNvtZWzEPwYmurZ9CY-5" value="" style="ellipse;html=1;shape=startState;fillColor=#000000;strokeColor=#ff0000;fillStyle=auto;" vertex="1" parent="emeNvtZWzEPwYmurZ9CY-4">
          <mxGeometry x="180" y="30" width="30" height="30" as="geometry" />
        </mxCell>
        <mxCell id="MkEyBu7R_c_1ipwITK1c-3" value="Pulsar el aparatado de &quot;Galería&quot;" style="rhombus;whiteSpace=wrap;html=1;fontColor=#000000;fillColor=#ffffc0;strokeColor=#ff0000;" vertex="1" parent="emeNvtZWzEPwYmurZ9CY-4">
          <mxGeometry x="137" y="80" width="116" height="86" as="geometry" />
        </mxCell>
        <mxCell id="MkEyBu7R_c_1ipwITK1c-85" style="edgeStyle=orthogonalEdgeStyle;rounded=0;orthogonalLoop=1;jettySize=auto;html=1;entryX=0.5;entryY=0;entryDx=0;entryDy=0;strokeColor=#FF0000;" edge="1" parent="emeNvtZWzEPwYmurZ9CY-4" source="MkEyBu7R_c_1ipwITK1c-40" target="MkEyBu7R_c_1ipwITK1c-84">
          <mxGeometry relative="1" as="geometry" />
        </mxCell>
        <mxCell id="MkEyBu7R_c_1ipwITK1c-40" value="&amp;nbsp;Pulsa botón &quot;Subir imagen&quot;" style="rounded=1;whiteSpace=wrap;html=1;arcSize=40;fontColor=#000000;fillColor=#ffffc0;strokeColor=#ff0000;" vertex="1" parent="emeNvtZWzEPwYmurZ9CY-4">
          <mxGeometry x="90" y="270" width="120" height="50" as="geometry" />
        </mxCell>
        <mxCell id="MkEyBu7R_c_1ipwITK1c-84" value="Sube la imagen&amp;nbsp;" style="rounded=1;whiteSpace=wrap;html=1;arcSize=40;fontColor=#000000;fillColor=#ffffc0;strokeColor=#ff0000;" vertex="1" parent="emeNvtZWzEPwYmurZ9CY-4">
          <mxGeometry x="90" y="350" width="120" height="50" as="geometry" />
        </mxCell>
        <mxCell id="MkEyBu7R_c_1ipwITK1c-88" value="Pulsa &quot;Guardar&quot;" style="rounded=1;whiteSpace=wrap;html=1;fillColor=#ffffc0;strokeColor=#ff0000;fontColor=#000000;arcSize=40;" vertex="1" parent="emeNvtZWzEPwYmurZ9CY-4">
          <mxGeometry x="100" y="470" width="120" height="60" as="geometry" />
        </mxCell>
        <mxCell id="emeNvtZWzEPwYmurZ9CY-8" value="Sistema" style="swimlane;startSize=20;" vertex="1" parent="emeNvtZWzEPwYmurZ9CY-1">
          <mxGeometry x="310" width="544" height="640" as="geometry" />
        </mxCell>
        <mxCell id="emeNvtZWzEPwYmurZ9CY-17" value="" style="ellipse;html=1;shape=endState;fillColor=#000000;strokeColor=#ff0000;" vertex="1" parent="emeNvtZWzEPwYmurZ9CY-8">
          <mxGeometry x="447" y="590" width="30" height="30" as="geometry" />
        </mxCell>
        <mxCell id="emeNvtZWzEPwYmurZ9CY-35" value="Lo redirige al apartado&amp;nbsp;" style="rounded=1;whiteSpace=wrap;html=1;arcSize=40;fontColor=#000000;fillColor=#ffffc0;strokeColor=#ff0000;" vertex="1" parent="emeNvtZWzEPwYmurZ9CY-8">
          <mxGeometry x="204" y="208" width="120" height="50" as="geometry" />
        </mxCell>
        <mxCell id="MkEyBu7R_c_1ipwITK1c-87" value="Muestra botón &quot;Guardar&quot;" style="rounded=1;whiteSpace=wrap;html=1;fillColor=#ffffc0;strokeColor=#ff0000;fontColor=#000000;arcSize=40;" vertex="1" parent="emeNvtZWzEPwYmurZ9CY-8">
          <mxGeometry x="212" y="345" width="120" height="60" as="geometry" />
        </mxCell>
        <mxCell id="v242t93jO8MfQiW6S4m2-1" value="¿Imagen agregada?" style="rhombus;whiteSpace=wrap;html=1;fontColor=#000000;fillColor=#ffffc0;strokeColor=#ff0000;" vertex="1" parent="emeNvtZWzEPwYmurZ9CY-8">
          <mxGeometry x="240" y="470" width="80" height="40" as="geometry" />
        </mxCell>
        <mxCell id="v242t93jO8MfQiW6S4m2-2" value="si" style="edgeStyle=orthogonalEdgeStyle;html=1;align=left;verticalAlign=bottom;endArrow=open;endSize=8;strokeColor=#ff0000;rounded=0;fontSize=12;entryX=0;entryY=0.5;entryDx=0;entryDy=0;" edge="1" parent="emeNvtZWzEPwYmurZ9CY-8" source="v242t93jO8MfQiW6S4m2-1" target="v242t93jO8MfQiW6S4m2-4">
          <mxGeometry x="-1" relative="1" as="geometry">
            <mxPoint x="420" y="490" as="targetPoint" />
          </mxGeometry>
        </mxCell>
        <mxCell id="v242t93jO8MfQiW6S4m2-5" style="edgeStyle=orthogonalEdgeStyle;rounded=0;orthogonalLoop=1;jettySize=auto;html=1;entryX=0.5;entryY=0;entryDx=0;entryDy=0;fontSize=12;startSize=8;endSize=8;" edge="1" parent="emeNvtZWzEPwYmurZ9CY-8" source="v242t93jO8MfQiW6S4m2-4" target="v242t93jO8MfQiW6S4m2-14">
          <mxGeometry relative="1" as="geometry" />
        </mxCell>
        <mxCell id="v242t93jO8MfQiW6S4m2-4" value="Imagen agregada en la galería" style="rounded=1;whiteSpace=wrap;html=1;fillColor=#ffffc0;strokeColor=#ff0000;fontColor=#000000;arcSize=40;" vertex="1" parent="emeNvtZWzEPwYmurZ9CY-8">
          <mxGeometry x="402" y="390" width="120" height="60" as="geometry" />
        </mxCell>
        <mxCell id="v242t93jO8MfQiW6S4m2-15" style="edgeStyle=orthogonalEdgeStyle;rounded=0;orthogonalLoop=1;jettySize=auto;html=1;entryX=0.5;entryY=0;entryDx=0;entryDy=0;fontSize=12;startSize=8;endSize=8;" edge="1" parent="emeNvtZWzEPwYmurZ9CY-8" source="v242t93jO8MfQiW6S4m2-14" target="emeNvtZWzEPwYmurZ9CY-17">
          <mxGeometry relative="1" as="geometry" />
        </mxCell>
        <mxCell id="v242t93jO8MfQiW6S4m2-14" value="Mostrar mensaje de éxito" style="rounded=1;whiteSpace=wrap;html=1;fillColor=#ffffc0;strokeColor=#ff0000;fontColor=#000000;arcSize=40;" vertex="1" parent="emeNvtZWzEPwYmurZ9CY-8">
          <mxGeometry x="402" y="480" width="120" height="60" as="geometry" />
        </mxCell>
        <mxCell id="v242t93jO8MfQiW6S4m2-16" value="Mostrar mensaje de error" style="rounded=1;whiteSpace=wrap;html=1;fillColor=#ffffc0;strokeColor=#ff0000;fontColor=#000000;arcSize=40;" vertex="1" parent="emeNvtZWzEPwYmurZ9CY-8">
          <mxGeometry x="60" y="530" width="120" height="60" as="geometry" />
        </mxCell>
        <mxCell id="v242t93jO8MfQiW6S4m2-3" value="no" style="edgeStyle=orthogonalEdgeStyle;html=1;align=left;verticalAlign=top;endArrow=open;endSize=8;strokeColor=#ff0000;rounded=0;fontSize=12;entryX=1;entryY=0.5;entryDx=0;entryDy=0;" edge="1" parent="emeNvtZWzEPwYmurZ9CY-8" source="v242t93jO8MfQiW6S4m2-1" target="v242t93jO8MfQiW6S4m2-16">
          <mxGeometry x="-1" relative="1" as="geometry">
            <mxPoint x="90" y="570" as="targetPoint" />
            <Array as="points">
              <mxPoint x="280" y="560" />
            </Array>
          </mxGeometry>
        </mxCell>
        <mxCell id="v242t93jO8MfQiW6S4m2-17" style="edgeStyle=orthogonalEdgeStyle;rounded=0;orthogonalLoop=1;jettySize=auto;html=1;entryX=0;entryY=0.5;entryDx=0;entryDy=0;fontSize=12;startSize=8;endSize=8;" edge="1" parent="emeNvtZWzEPwYmurZ9CY-1" source="v242t93jO8MfQiW6S4m2-16" target="MkEyBu7R_c_1ipwITK1c-84">
          <mxGeometry relative="1" as="geometry" />
        </mxCell>
      </root>
    </mxGraphModel>
  </diagram>
</mxfile>
